<svg version="1.1" id="Layer_1" xmlns="http://www.w3.org/2000/svg" xmlns:xlink="http://www.w3.org/1999/xlink" x="0px" y="0px"
	 width="100%" viewBox="0 0 1314 1313" enable-background="new 0 0 1314 1313" xml:space="preserve">
<path fill="#4A39A1" opacity="1.000000" stroke="none" 
	d="
M323.000000,4.000057 
	C343.498047,4.000026 363.496063,3.999964 383.494110,3.999970 
	C624.864868,4.000042 866.235779,3.908152 1107.606079,4.271930 
	C1119.669312,4.290111 1131.945312,7.445682 1143.728882,10.606493 
	C1157.079468,14.187632 1170.200195,18.893776 1183.032349,24.072994 
	C1199.088013,30.553261 1213.396118,40.210102 1226.690063,51.258591 
	C1234.817749,58.013363 1243.211182,64.597984 1250.435547,72.249901 
	C1258.552490,80.847084 1265.704346,90.395172 1272.885742,99.826607 
	C1283.489868,113.753090 1291.177979,129.498337 1297.395874,145.632462 
	C1302.428711,158.691498 1305.785156,172.691345 1307.757202,186.576080 
	C1312.379883,219.122940 1309.875488,251.983032 1309.897583,284.701233 
	C1310.079224,552.569275 1309.980103,820.437500 1310.048950,1088.305664 
	C1310.053101,1104.442871 1310.381592,1120.546265 1307.095215,1136.478027 
	C1306.720947,1138.292114 1307.621460,1140.369263 1308.112183,1143.470703 
	C1302.999023,1145.376831 1303.997559,1151.789307 1301.981812,1156.744263 
	C1296.930664,1169.160400 1293.138794,1182.262451 1286.676147,1193.885132 
	C1279.305908,1207.140015 1270.025146,1219.423218 1260.779663,1231.520996 
	C1250.067261,1245.538086 1236.761719,1257.140137 1222.651855,1267.615479 
	C1214.687988,1273.527954 1205.597778,1277.897339 1197.330078,1283.432617 
	C1185.924805,1291.068359 1173.380127,1296.003174 1160.468994,1300.245483 
	C1140.174805,1306.913452 1119.502808,1310.138672 1097.997559,1310.147095 
	C803.746948,1310.261963 509.496338,1310.712891 215.245605,1310.884888 
	C197.626755,1310.895142 180.270752,1308.111450 163.164551,1303.162842 
	C148.850616,1299.021973 135.105347,1293.812378 121.964035,1286.951172 
	C104.187050,1277.670044 87.704056,1266.391235 73.712975,1252.007324 
	C62.365326,1240.340942 51.304726,1228.268188 41.344162,1215.423950 
	C34.575409,1206.695435 29.287560,1196.629761 24.475433,1186.615234 
	C16.434763,1169.881470 12.404627,1151.786377 7.641080,1133.899292 
	C5.171697,1124.626953 5.355175,1115.402344 5.312673,1106.412109 
	C4.822638,1002.757935 5.000052,899.100586 5.000057,795.444092 
	C5.000065,599.568848 4.993604,403.693634 5.042491,207.818405 
	C5.043558,203.544312 5.781044,199.274872 5.966804,194.994232 
	C6.043787,193.220261 5.567668,191.422989 5.352313,189.635208 
	C5.274793,188.991684 4.917584,188.103287 5.207207,187.735641 
	C10.053707,181.583649 8.948006,173.650665 11.548847,166.824173 
	C16.382338,154.137558 20.672245,141.233917 25.821709,128.680389 
	C31.023090,116.000298 39.296852,105.148170 47.172859,93.965118 
	C64.111717,69.913849 85.817062,51.178711 110.293297,35.644325 
	C122.278282,28.037792 135.537933,22.345194 148.525253,16.458307 
	C153.814545,14.060784 159.935608,13.533949 165.638000,12.005858 
	C188.536072,5.869773 211.839355,3.665777 235.512543,3.924539 
	C264.505188,4.241445 293.503906,4.000057 323.000000,4.000057 
M324.675903,430.129517 
	C307.758209,446.530640 292.671387,464.385590 279.817688,484.222473 
	C268.060608,502.366974 257.845764,521.345947 251.493469,541.879883 
	C242.221756,571.850952 237.733398,602.593689 241.859055,634.173767 
	C245.135559,659.253906 252.106369,683.163940 263.019043,705.936096 
	C273.283936,727.356445 286.515350,746.695312 301.923035,764.870972 
	C314.712646,779.958191 328.711823,793.735779 343.979736,805.913879 
	C360.475861,819.071655 378.651062,830.131531 396.164734,842.002014 
	C401.559052,845.658142 405.894653,848.889526 406.432251,856.848328 
	C407.649139,874.862793 410.531555,892.767151 412.817017,910.706116 
	C414.097321,920.755554 415.547424,930.783264 416.903839,940.823059 
	C418.600647,953.381836 420.057281,965.978516 422.053162,978.489319 
	C423.183289,985.573120 430.040100,990.096619 436.621857,988.001282 
	C441.895569,986.322388 446.933044,983.689331 451.799652,980.983765 
	C465.983826,973.098206 480.062561,965.020813 494.121307,956.912354 
	C510.453217,947.492920 526.722168,937.964417 543.014343,928.476135 
	C550.284363,924.242249 557.442200,919.802612 564.834717,915.795410 
	C574.021118,910.815857 582.552917,903.801575 594.248657,906.059387 
	C598.312988,906.843933 602.539856,906.747925 606.674744,907.212219 
	C638.228638,910.756226 669.816711,910.988464 701.518677,909.312317 
	C732.238586,907.688110 762.638184,903.813965 792.503113,896.781982 
	C813.807678,891.765625 835.169678,886.147705 855.566895,878.343689 
	C879.396545,869.226440 902.274231,857.587646 925.416260,846.725891 
	C932.710022,843.302429 939.916138,839.412476 946.482422,834.773560 
	C962.979675,823.118591 979.690857,811.634094 995.159363,798.697998 
	C1007.106812,788.706360 1017.905151,777.138733 1028.093750,765.306763 
	C1037.087158,754.862732 1044.924072,743.345703 1052.575684,731.839722 
	C1067.879395,708.826965 1078.835083,683.914795 1084.600098,656.718201 
	C1093.701172,613.783630 1090.528564,571.983643 1074.602295,531.054016 
	C1065.550781,507.792389 1053.219482,486.502899 1038.331299,466.516174 
	C1023.952637,447.213562 1007.137695,430.301453 988.715637,415.017731 
	C977.648560,405.835968 966.072205,397.143616 954.031006,389.295563 
	C942.056091,381.490601 929.338074,374.785004 916.726379,368.005768 
	C885.161499,351.038635 851.864929,338.461121 817.408142,328.663666 
	C791.345642,321.253052 764.889709,315.933044 738.010803,313.242645 
	C715.191650,310.958588 692.230469,309.439484 669.307068,309.047333 
	C648.899658,308.698242 628.377075,309.491425 608.054443,311.382721 
	C588.762024,313.178101 569.595093,316.673187 550.495178,320.101471 
	C523.580627,324.932495 497.105804,331.903809 471.734467,342.017700 
	C448.934326,351.106659 426.535400,361.385925 404.624847,372.456879 
	C390.411041,379.638855 376.860016,388.457489 363.983429,397.871521 
	C350.503296,407.726837 338.185272,419.171661 324.675903,430.129517 
z"/>
<path fill="#FFFFFF" opacity="1.000000" stroke="none" 
	d="
M325.017609,430.025635 
	C338.185272,419.171661 350.503296,407.726837 363.983429,397.871521 
	C376.860016,388.457489 390.411041,379.638855 404.624847,372.456879 
	C426.535400,361.385925 448.934326,351.106659 471.734467,342.017700 
	C497.105804,331.903809 523.580627,324.932495 550.495178,320.101471 
	C569.595093,316.673187 588.762024,313.178101 608.054443,311.382721 
	C628.377075,309.491425 648.899658,308.698242 669.307068,309.047333 
	C692.230469,309.439484 715.191650,310.958588 738.010803,313.242645 
	C764.889709,315.933044 791.345642,321.253052 817.408142,328.663666 
	C851.864929,338.461121 885.161499,351.038635 916.726379,368.005768 
	C929.338074,374.785004 942.056091,381.490601 954.031006,389.295563 
	C966.072205,397.143616 977.648560,405.835968 988.715637,415.017731 
	C1007.137695,430.301453 1023.952637,447.213562 1038.331299,466.516174 
	C1053.219482,486.502899 1065.550781,507.792389 1074.602295,531.054016 
	C1090.528564,571.983643 1093.701172,613.783630 1084.600098,656.718201 
	C1078.835083,683.914795 1067.879395,708.826965 1052.575684,731.839722 
	C1044.924072,743.345703 1037.087158,754.862732 1028.093750,765.306763 
	C1017.905151,777.138733 1007.106812,788.706360 995.159363,798.697998 
	C979.690857,811.634094 962.979675,823.118591 946.482422,834.773560 
	C939.916138,839.412476 932.710022,843.302429 925.416260,846.725891 
	C902.274231,857.587646 879.396545,869.226440 855.566895,878.343689 
	C835.169678,886.147705 813.807678,891.765625 792.503113,896.781982 
	C762.638184,903.813965 732.238586,907.688110 701.518677,909.312317 
	C669.816711,910.988464 638.228638,910.756226 606.674744,907.212219 
	C602.539856,906.747925 598.312988,906.843933 594.248657,906.059387 
	C582.552917,903.801575 574.021118,910.815857 564.834717,915.795410 
	C557.442200,919.802612 550.284363,924.242249 543.014343,928.476135 
	C526.722168,937.964417 510.453217,947.492920 494.121307,956.912354 
	C480.062561,965.020813 465.983826,973.098206 451.799652,980.983765 
	C446.933044,983.689331 441.895569,986.322388 436.621857,988.001282 
	C430.040100,990.096619 423.183289,985.573120 422.053162,978.489319 
	C420.057281,965.978516 418.600647,953.381836 416.903839,940.823059 
	C415.547424,930.783264 414.097321,920.755554 412.817017,910.706116 
	C410.531555,892.767151 407.649139,874.862793 406.432251,856.848328 
	C405.894653,848.889526 401.559052,845.658142 396.164734,842.002014 
	C378.651062,830.131531 360.475861,819.071655 343.979736,805.913879 
	C328.711823,793.735779 314.712646,779.958191 301.923035,764.870972 
	C286.515350,746.695312 273.283936,727.356445 263.019043,705.936096 
	C252.106369,683.163940 245.135559,659.253906 241.859055,634.173767 
	C237.733398,602.593689 242.221756,571.850952 251.493469,541.879883 
	C257.845764,521.345947 268.060608,502.366974 279.817688,484.222473 
	C292.671387,464.385590 307.758209,446.530640 325.017609,430.025635 
z"/>
</svg>