<svg version="1.1" id="Layer_1" xmlns="http://www.w3.org/2000/svg" xmlns:xlink="http://www.w3.org/1999/xlink" x="0px" y="0px"
	 width="100%" viewBox="0 0 1984 2132" enable-background="new 0 0 1984 2132" xml:space="preserve">
<path fill="#000000" opacity="1.000000" stroke="none" 
	d="
M1034.000000,2134.000000 
	C689.333313,2134.000000 345.666656,2134.000000 2.000000,2134.000000 
	C2.000000,1423.333374 2.000000,712.666687 2.000000,2.000000 
	C663.333313,2.000000 1324.666626,2.000000 1986.000000,2.000000 
	C1986.000000,712.666687 1986.000000,1423.333374 1986.000000,2134.000000 
	C1669.000000,2134.000000 1352.000000,2134.000000 1034.000000,2134.000000 
M377.573914,586.874451 
	C377.651520,587.226074 377.729095,587.577637 377.950012,587.961243 
	C377.950012,587.961243 377.930634,587.815674 376.735291,587.801575 
	C376.439941,588.517517 376.144592,589.233459 375.982788,589.985901 
	C375.982788,589.985901 375.919525,589.862732 374.687592,590.504089 
	C372.401703,595.671570 370.115814,600.839050 367.969818,605.980530 
	C367.969818,605.980530 367.923187,605.846069 366.577820,606.243896 
	C362.164978,615.175171 356.550598,623.642517 355.986176,633.992371 
	C355.986176,633.992371 355.922028,633.878296 354.924561,634.187927 
	C354.758942,634.803894 354.593353,635.419922 354.065735,637.544983 
	C347.034027,656.424988 343.107422,675.823181 343.768005,697.874268 
	C343.938721,711.882629 344.109436,725.890991 344.046814,741.630615 
	C344.123810,745.120361 344.200806,748.610046 343.778778,753.876099 
	C343.945465,761.884644 344.112152,769.893188 344.045258,779.775818 
	C344.067261,803.197876 344.089264,826.619873 343.684296,851.741638 
	C343.827118,855.813538 343.969910,859.885498 343.943512,865.830688 
	C343.997406,923.899231 344.051300,981.967712 343.674316,1041.862671 
	C343.662842,1221.918457 343.649780,1401.974121 343.660278,1582.029907 
	C343.660370,1584.008423 343.968109,1585.986938 343.955505,1589.780640 
	C343.106232,1601.074707 345.601929,1612.005005 348.080048,1622.839233 
	C353.372559,1645.977539 361.972473,1667.878418 374.270325,1688.239014 
	C374.888580,1689.262695 376.616882,1689.615845 377.872772,1690.112549 
	C377.872772,1690.112549 377.698547,1690.105347 376.922791,1691.460815 
	C378.842438,1694.535889 380.444214,1697.878662 382.756378,1700.623047 
	C386.202667,1704.713257 390.150085,1708.381226 393.919098,1712.071655 
	C393.919098,1712.071655 393.758484,1712.060669 393.223816,1713.480957 
	C395.481140,1716.032227 397.738434,1718.583374 400.092590,1722.234375 
	C401.798706,1723.470703 403.504822,1724.706909 405.792694,1727.098877 
	C406.531342,1727.450317 407.269958,1727.801758 407.995544,1728.000244 
	C407.995544,1728.000244 407.842896,1728.014893 407.870239,1729.460327 
	C409.179901,1730.396973 410.489563,1731.333618 411.968628,1732.079590 
	C411.968628,1732.079590 411.743408,1732.199341 411.316315,1733.620728 
	C412.141113,1733.832886 412.965881,1734.044922 413.911621,1733.994141 
	C413.911621,1733.994141 413.736725,1734.225098 413.271912,1735.548584 
	C415.493195,1737.080811 417.714447,1738.613037 419.981934,1740.017578 
	C419.981934,1740.017578 419.848389,1740.041748 420.110718,1741.111450 
	C420.727020,1741.456665 421.343323,1741.801880 421.986816,1742.014893 
	C421.986816,1742.014893 421.867584,1742.078003 422.275269,1743.345825 
	C425.487549,1745.611938 428.699860,1747.878052 431.995483,1750.010010 
	C431.995483,1750.010010 431.868286,1750.103760 432.329773,1751.412842 
	C435.529510,1753.018799 438.729279,1754.624878 441.916656,1756.075684 
	C441.916656,1756.075684 441.774475,1756.139038 441.338348,1757.420532 
	C443.593506,1758.707275 445.848633,1759.993896 448.289764,1761.948608 
	C448.289764,1761.948608 448.980591,1762.007935 449.988647,1762.696655 
	C465.816833,1773.543091 482.648102,1782.096436 503.411316,1786.280151 
	C504.026459,1786.361450 504.641571,1786.442749 505.652344,1787.230713 
	C517.527954,1791.404663 529.829346,1793.574951 542.344727,1793.802490 
	C554.257996,1794.019043 566.187500,1793.100464 578.109924,1793.098267 
	C861.046448,1793.048828 1143.982910,1793.051270 1426.919434,1793.099731 
	C1430.870605,1793.100342 1434.820557,1794.114502 1438.773315,1794.131470 
	C1449.922485,1794.179199 1461.195557,1795.474854 1473.710938,1791.862549 
	C1480.650635,1790.119873 1487.590210,1788.377197 1496.453857,1786.340820 
	C1497.026855,1786.036865 1497.599976,1785.732910 1499.660645,1785.406860 
	C1501.591919,1784.977417 1503.596069,1784.750366 1505.442505,1784.085205 
	C1516.051514,1780.262695 1527.236938,1777.680908 1536.017578,1770.021851 
	C1536.017578,1770.021851 1536.059326,1770.168579 1537.487427,1770.149536 
	C1541.031494,1768.118286 1544.575562,1766.086914 1548.006348,1764.004761 
	C1548.006348,1764.004761 1548.035034,1764.125732 1549.409424,1763.832031 
	C1554.473267,1760.091187 1561.324951,1758.598877 1564.041138,1752.049316 
	C1564.041138,1752.049316 1564.032349,1752.196167 1565.326172,1752.588013 
	C1566.263306,1751.743896 1567.200439,1750.899780 1568.011597,1750.015137 
	C1568.011597,1750.015137 1568.035767,1750.145386 1569.430298,1750.038940 
	C1572.349976,1747.421021 1575.269653,1744.802979 1578.096069,1741.990356 
	C1578.096069,1741.990356 1578.135254,1742.201538 1579.510010,1742.245361 
	C1580.417603,1740.871826 1581.325073,1739.498169 1582.080566,1738.090088 
	C1582.080566,1738.090088 1582.086304,1738.246094 1583.383423,1738.690674 
	C1584.964966,1737.166870 1586.546509,1735.642944 1588.000000,1734.004883 
	C1588.000000,1734.004883 1588.123657,1734.127441 1589.447754,1733.838867 
	C1593.431152,1729.541992 1599.449219,1726.848022 1600.091309,1720.059448 
	C1600.091309,1720.059448 1600.098511,1720.258789 1601.577393,1720.751465 
	C1601.798950,1719.865356 1602.020508,1718.979370 1602.079712,1718.098389 
	C1602.079712,1718.098389 1602.112305,1718.257324 1603.468384,1718.809326 
	C1604.380493,1717.251343 1605.292725,1715.693237 1605.995239,1714.074951 
	C1605.995239,1714.074951 1606.177979,1714.194336 1607.451172,1714.300659 
	C1608.347168,1712.892334 1609.243164,1711.483887 1610.004761,1710.007568 
	C1610.004761,1710.007568 1610.099609,1710.124512 1611.389771,1709.698242 
	C1615.634888,1703.141479 1619.880005,1696.584717 1624.004395,1690.005737 
	C1624.004395,1690.005737 1624.044067,1690.121704 1625.257080,1689.479736 
	C1632.718750,1680.026733 1637.086304,1669.002686 1642.272217,1656.780029 
	C1645.542236,1645.895874 1648.318848,1634.831299 1652.216064,1624.176636 
	C1656.404541,1612.726196 1655.648438,1600.940186 1657.543091,1587.843994 
	C1657.693970,1586.193726 1657.976807,1584.543457 1657.977051,1582.893188 
	C1657.998657,1427.702271 1658.007812,1272.511475 1657.928223,1117.320557 
	C1657.926758,1114.512939 1656.846558,1111.705933 1656.502075,1107.175659 
	C1656.503418,976.731018 1656.509644,846.286438 1656.477661,715.841797 
	C1656.476807,712.536926 1656.051636,709.232239 1656.082153,704.170898 
	C1655.927124,699.415527 1655.772095,694.660156 1655.721802,688.080872 
	C1655.665405,681.804504 1656.437866,675.383118 1655.369995,669.283752 
	C1653.475098,658.460571 1651.212646,647.576965 1647.669312,637.208862 
	C1645.095947,629.678650 1644.695679,620.918152 1638.314941,614.284851 
	C1638.314941,614.284851 1637.658691,613.701660 1637.572632,612.683838 
	C1637.145020,611.757935 1636.717529,610.832031 1636.368774,608.407043 
	C1630.539429,598.152771 1624.710205,587.898499 1618.316528,576.349976 
	C1605.411255,558.068359 1590.053345,542.220032 1572.214478,528.643127 
	C1544.202271,507.323425 1514.114014,490.961090 1478.402344,487.068665 
	C1475.527588,486.755341 1472.773804,485.330536 1468.566406,483.582825 
	C1460.379517,483.004303 1452.192505,482.425781 1442.162842,481.600464 
	C1150.762573,481.601318 859.362366,481.601318 567.962097,481.612946 
	C564.637512,481.613068 561.312988,481.763306 556.673706,481.409149 
	C549.121094,482.266022 541.568481,483.122894 532.332703,484.366455 
	C530.450684,484.885132 528.598816,485.615692 526.681763,485.887787 
	C514.980042,487.548615 503.294525,489.199615 492.329193,494.005737 
	C481.277710,498.849548 469.090271,501.365875 459.989716,509.984375 
	C459.989716,509.984375 459.983612,509.852753 458.592682,509.937805 
	C455.679047,511.917358 452.765411,513.896912 449.982910,515.976807 
	C449.982910,515.976807 449.924469,515.822388 448.579620,515.741150 
	C448.314209,516.462463 448.048798,517.183838 447.943268,517.940063 
	C447.943268,517.940063 447.960175,517.777344 446.509979,517.405090 
	C438.952698,522.821228 431.395447,528.237305 422.764587,533.952881 
	C422.472168,534.566772 422.179749,535.180664 422.004761,535.863403 
	C422.004761,535.863403 421.878784,535.837158 420.704468,535.894714 
	C420.414215,536.565186 420.123993,537.235596 419.975647,537.975708 
	C419.975647,537.975708 419.907990,537.832886 418.696747,537.871094 
	C418.401703,538.536682 418.106628,539.202209 418.008301,539.942200 
	C418.008301,539.942200 417.839752,539.815735 416.456268,539.728455 
	C409.594543,547.108826 402.732788,554.489258 396.001221,561.992676 
	C396.001221,561.992676 395.868683,561.879089 394.600861,562.327332 
	C389.692596,569.546265 384.784363,576.765198 379.998688,583.998413 
	C379.998688,583.998413 379.969849,583.878357 379.051544,584.291870 
	C378.780853,584.869080 378.510193,585.446350 377.573914,586.874451 
z"/>
<path fill="#49399F" opacity="1.000000" stroke="none" 
	d="
M405.210938,1725.943115 
	C403.504822,1724.706909 401.798706,1723.470703 400.197021,1720.932617 
	C398.120453,1717.107544 395.939453,1714.584106 393.758453,1712.060669 
	C393.758484,1712.060669 393.919098,1712.071655 393.944519,1711.443970 
	C388.546143,1703.912598 383.122375,1697.008911 377.698578,1690.105347 
	C377.698547,1690.105347 377.872772,1690.112549 377.936096,1689.467041 
	C374.286194,1681.842041 370.196625,1675.033325 366.937073,1667.848022 
	C359.861115,1652.250244 353.220001,1636.456787 351.885315,1618.226318 
	C351.230133,1614.885376 350.555603,1612.382812 349.659119,1609.426025 
	C349.588715,1608.345825 349.740326,1607.720093 349.909393,1606.071533 
	C349.950562,1445.170654 349.985474,1285.292725 349.915649,1125.414673 
	C349.914307,1122.271118 348.683990,1119.128174 348.022827,1115.086304 
	C348.020935,1108.799927 348.023254,1103.412231 348.582092,1097.403076 
	C349.423889,1094.164062 349.957825,1091.546387 349.958740,1088.928467 
	C349.999054,975.094177 350.007690,861.259888 349.909668,747.425659 
	C349.906982,744.279419 348.698456,741.134155 348.036682,737.134399 
	C348.022461,732.864197 348.023712,729.447937 348.580841,725.409180 
	C349.366943,708.800659 349.617340,692.814819 349.772827,676.828125 
	C349.781342,675.954285 348.998535,675.072693 348.535278,673.404907 
	C351.044006,660.407837 353.601501,648.200500 356.269531,635.445435 
	C356.227417,634.557922 356.074707,634.218079 355.922028,633.878296 
	C355.922028,633.878296 355.986176,633.992371 356.607300,633.810547 
	C360.793365,624.367798 364.358276,615.106934 367.923187,605.846069 
	C367.923187,605.846069 367.969818,605.980530 368.582611,605.815308 
	C371.436768,600.387695 373.678162,595.125183 375.919556,589.862732 
	C375.919525,589.862732 375.982788,589.985901 376.566193,590.085449 
	C377.409943,589.395264 377.670288,588.605469 377.930634,587.815674 
	C377.930634,587.815674 377.950012,587.961243 378.446777,587.967346 
	C379.263885,587.328735 379.584259,586.684021 380.032593,585.502441 
	C380.096954,584.603210 380.033417,584.240784 379.969849,583.878357 
	C379.969849,583.878357 379.998688,583.998413 380.633789,584.034546 
	C386.135040,577.876526 391.062103,571.728088 395.788635,565.429199 
	C396.366364,564.659302 395.868225,563.082153 395.868683,561.879089 
	C395.868683,561.879089 396.001221,561.992676 396.583191,562.307495 
	C403.948853,555.934143 410.759094,549.272339 417.463257,542.505310 
	C417.973663,541.990112 417.731903,540.729736 417.839752,539.815735 
	C417.839752,539.815735 418.008301,539.942200 418.549316,539.963867 
	C419.362915,539.267944 419.635468,538.550415 419.907990,537.832886 
	C419.907990,537.832886 419.975647,537.975708 420.569427,538.013184 
	C421.401733,537.312805 421.640289,536.574951 421.878784,535.837158 
	C421.878784,535.837158 422.004761,535.863403 422.361511,536.275635 
	C423.115204,536.599487 423.512115,536.511047 424.537872,536.118408 
	C432.764496,529.801941 440.362335,523.789612 447.960175,517.777344 
	C447.960175,517.777344 447.943268,517.940063 448.512177,517.941895 
	C449.362244,517.236633 449.643372,516.529541 449.924500,515.822388 
	C449.924469,515.822388 449.982910,515.976807 450.628601,516.099487 
	C454.177399,514.099060 457.080505,511.975922 459.983612,509.852783 
	C459.983612,509.852753 459.989716,509.984375 460.677917,510.157104 
	C462.020355,510.219940 462.750061,510.261261 463.317902,509.978058 
	C481.210236,501.054413 499.591156,493.494598 519.348450,489.734009 
	C519.998230,489.610321 520.939880,489.589539 521.219543,489.170044 
	C524.614075,484.079041 529.417480,485.410675 535.019287,486.265411 
	C543.286987,485.575348 550.655396,484.834808 558.701782,484.146423 
	C560.278442,484.300079 561.177246,484.401581 562.758728,484.954285 
	C566.084045,485.604797 568.726624,485.978516 571.369202,485.978760 
	C858.341919,486.005219 1145.314575,486.008636 1432.287354,485.940491 
	C1435.501831,485.939728 1438.716064,484.986298 1442.442871,484.341675 
	C1443.304077,484.149170 1443.652954,484.092529 1444.808228,484.214142 
	C1453.690674,484.842010 1461.766602,485.291626 1470.598877,485.821442 
	C1473.663574,486.020355 1476.733765,485.235077 1478.142212,486.421814 
	C1482.988647,490.505615 1488.944946,490.847595 1494.534546,492.504486 
	C1514.971924,498.562744 1534.321777,506.970490 1552.401855,518.406555 
	C1577.412598,534.226501 1597.943115,554.680054 1616.008667,578.740112 
	C1622.213989,589.581238 1628.140625,599.784973 1634.153076,610.540833 
	C1635.378784,611.962524 1636.518677,612.832092 1637.658691,613.701660 
	C1637.658691,613.701660 1638.314941,614.284851 1637.928955,615.520996 
	C1638.644531,620.199646 1639.697144,623.658508 1640.855591,627.081665 
	C1646.773071,644.566833 1652.845947,662.015869 1652.105957,681.913574 
	C1651.394897,696.852722 1650.108276,710.768005 1650.102417,724.683838 
	C1649.979858,1017.826355 1649.997314,1310.968872 1650.052979,1604.111450 
	C1650.053589,1607.338989 1650.921143,1610.566162 1651.386841,1614.565063 
	C1647.765015,1627.956177 1644.090576,1640.562012 1640.586792,1653.215088 
	C1640.204712,1654.594604 1640.804688,1656.246094 1640.545410,1658.414551 
	C1638.916626,1660.156860 1637.277954,1661.030273 1636.534912,1662.392334 
	C1632.401855,1669.968506 1628.408936,1677.625000 1624.569336,1685.354004 
	C1623.901489,1686.698364 1624.194824,1688.520386 1624.044067,1690.121704 
	C1624.044067,1690.121704 1624.004395,1690.005737 1623.364136,1689.926758 
	C1619.283447,1694.275879 1615.646362,1698.569946 1612.495972,1703.195435 
	C1611.168213,1705.144897 1610.867310,1707.793579 1610.099609,1710.124512 
	C1610.099609,1710.124512 1610.004761,1710.007568 1609.358154,1709.857666 
	C1607.866943,1711.203369 1607.022461,1712.698853 1606.177979,1714.194336 
	C1606.177979,1714.194336 1605.995239,1714.074951 1605.422363,1713.984131 
	C1603.937134,1715.347900 1603.024658,1716.802612 1602.112305,1718.257324 
	C1602.112305,1718.257324 1602.079712,1718.098389 1601.576294,1718.168457 
	C1600.748047,1718.911987 1600.423340,1719.585327 1600.098511,1720.258789 
	C1600.098511,1720.258789 1600.091309,1720.059448 1599.505127,1720.181274 
	C1596.330444,1722.834839 1593.528320,1725.189697 1591.231567,1727.963135 
	C1589.800659,1729.690918 1589.133545,1732.051147 1588.123779,1734.127441 
	C1588.123657,1734.127441 1588.000000,1734.004883 1587.429199,1733.676270 
	C1585.267578,1734.980347 1583.677002,1736.613281 1582.086426,1738.246094 
	C1582.086304,1738.246094 1582.080566,1738.090088 1581.465820,1738.055420 
	C1579.945679,1739.414429 1579.040527,1740.807983 1578.135254,1742.201538 
	C1578.135254,1742.201538 1578.096069,1741.990356 1577.449463,1741.870850 
	C1573.880493,1744.549316 1570.958130,1747.347290 1568.035767,1750.145264 
	C1568.035767,1750.145386 1568.011597,1750.015137 1567.416260,1749.918457 
	C1565.891357,1750.613281 1564.961914,1751.404785 1564.032471,1752.196289 
	C1564.032349,1752.196167 1564.041138,1752.049316 1563.402466,1752.062256 
	C1557.745117,1755.958618 1550.725464,1757.396484 1548.035034,1764.125732 
	C1548.035034,1764.125732 1548.006348,1764.004761 1547.340332,1763.787354 
	C1543.136108,1765.769531 1539.597656,1767.969116 1536.059326,1770.168579 
	C1536.059326,1770.168579 1536.017578,1770.021851 1535.338135,1769.811279 
	C1523.357910,1773.905762 1512.039429,1778.165405 1500.785156,1782.588867 
	C1499.708618,1783.011963 1499.034180,1784.457764 1498.173096,1785.428711 
	C1497.599976,1785.732910 1497.026855,1786.036865 1494.956055,1786.308716 
	C1486.345459,1787.719360 1479.232788,1789.162231 1471.254883,1790.527466 
	C1455.494629,1791.426392 1440.602173,1793.198608 1425.704102,1793.247314 
	C1341.090820,1793.523926 1256.476074,1793.394165 1171.861816,1793.392334 
	C975.982727,1793.387939 780.103699,1793.372314 584.224609,1793.377197 
	C560.257141,1793.377808 536.373474,1792.730469 513.001160,1786.462646 
	C510.597992,1785.818115 507.846527,1786.472412 505.256683,1786.524048 
	C504.641571,1786.442749 504.026459,1786.361450 502.220337,1785.295898 
	C499.679962,1783.492432 498.407410,1782.491821 496.968994,1781.882812 
	C486.072144,1777.269775 475.149933,1772.716309 464.220337,1768.181152 
	C459.158142,1766.080566 454.061615,1764.062988 448.980591,1762.007812 
	C448.980591,1762.007935 448.289764,1761.948608 448.013092,1760.989014 
	C445.749115,1758.732666 443.761810,1757.435791 441.774475,1756.139038 
	C441.774475,1756.139038 441.916656,1756.075684 441.741028,1755.471558 
	C438.333008,1753.279541 435.100647,1751.691650 431.868286,1750.103760 
	C431.868286,1750.103760 431.995483,1750.010010 432.149628,1749.377197 
	C429.485046,1745.489014 427.075409,1741.593262 421.867584,1742.078003 
	C421.867584,1742.078003 421.986816,1742.014893 421.991699,1741.459229 
	C421.280487,1740.616211 420.564453,1740.328979 419.848389,1740.041748 
	C419.848389,1740.041748 419.981934,1740.017578 420.083405,1739.378296 
	C418.035492,1737.234375 415.886108,1735.729736 413.736725,1734.225098 
	C413.736725,1734.225098 413.911621,1733.994141 413.916290,1733.490601 
	C413.195099,1732.724487 412.469269,1732.461914 411.743408,1732.199341 
	C411.743408,1732.199341 411.968628,1732.079590 411.964355,1731.516724 
	C410.587708,1729.974243 409.215302,1728.994507 407.842896,1728.014893 
	C407.842896,1728.014893 407.995544,1728.000244 407.791321,1727.464355 
	C406.795074,1726.599976 406.003021,1726.271484 405.210938,1725.943115 
M923.036560,1384.805664 
	C926.285278,1384.498657 929.564331,1383.749512 932.776855,1383.969727 
	C941.412598,1384.562378 950.009155,1385.705444 958.640320,1386.389282 
	C1020.153076,1391.262939 1081.148804,1388.153198 1141.224609,1373.397583 
	C1204.575684,1357.837402 1263.836792,1333.052246 1316.164307,1293.356079 
	C1351.032837,1266.904297 1380.921631,1235.853638 1401.962646,1197.099731 
	C1440.432251,1126.245850 1439.914673,1055.057129 1402.199829,984.225830 
	C1375.838379,934.716980 1336.244507,897.557922 1289.293823,867.961304 
	C1221.512573,825.233521 1146.904297,802.396606 1067.636597,794.336731 
	C1009.991089,788.475403 952.563843,790.596130 895.599060,802.071899 
	C827.552612,815.780029 764.021851,840.233337 707.257690,880.816101 
	C663.700623,911.956665 628.267517,950.200317 605.532898,999.220642 
	C587.862671,1037.321045 581.208618,1077.436768 586.948120,1118.999023 
	C593.113281,1163.643799 612.361023,1202.769165 640.795288,1237.526001 
	C669.004028,1272.007202 703.475281,1299.039429 741.571228,1321.589478 
	C747.750061,1325.246948 750.393860,1329.365356 751.172729,1336.261230 
	C755.395142,1373.647339 760.386108,1410.949585 764.323975,1448.363525 
	C766.344177,1467.557495 775.999817,1470.163452 790.249390,1461.725830 
	C833.794128,1435.941528 877.808228,1410.949707 923.036560,1384.805664 
z"/>
<path fill="#ABA8B8" opacity="1.000000" stroke="none" 
	d="
M505.454529,1786.877441 
	C507.846527,1786.472412 510.597992,1785.818115 513.001160,1786.462646 
	C536.373474,1792.730469 560.257141,1793.377808 584.224609,1793.377197 
	C780.103699,1793.372314 975.982727,1793.387939 1171.861816,1793.392334 
	C1256.476074,1793.394165 1341.090820,1793.523926 1425.704102,1793.247314 
	C1440.602173,1793.198608 1455.494629,1791.426392 1471.244629,1790.753662 
	C1472.099731,1791.057495 1472.035034,1791.507324 1472.035034,1791.507324 
	C1461.195557,1795.474854 1449.922485,1794.179199 1438.773315,1794.131470 
	C1434.820557,1794.114502 1430.870605,1793.100342 1426.919434,1793.099731 
	C1143.982910,1793.051270 861.046448,1793.048828 578.109924,1793.098267 
	C566.187500,1793.100464 554.257996,1794.019043 542.344727,1793.802490 
	C529.829346,1793.574951 517.527954,1791.404663 505.454529,1786.877441 
z"/>
<path fill="#B8B1D0" opacity="1.000000" stroke="none" 
	d="
M1640.948975,1657.771362 
	C1640.804688,1656.246094 1640.204712,1654.594604 1640.586792,1653.215088 
	C1644.090576,1640.562012 1647.765015,1627.956177 1651.535034,1613.704834 
	C1652.479492,1600.153809 1653.966797,1588.235229 1653.975098,1576.315430 
	C1654.109131,1386.522827 1654.041748,1196.730225 1654.046143,1006.937500 
	C1654.048340,906.714478 1654.099609,806.491455 1654.543457,706.137939 
	C1654.958252,706.007385 1655.824341,705.927429 1655.824341,705.927429 
	C1656.051636,709.232239 1656.476807,712.536926 1656.477661,715.841797 
	C1656.509644,846.286438 1656.503418,976.731018 1656.319092,1109.056641 
	C1656.090820,1113.599609 1656.005981,1116.261597 1656.005859,1118.923462 
	C1656.001099,1272.358765 1656.001587,1425.794189 1656.016235,1579.229492 
	C1656.016602,1582.555542 1656.185913,1585.881592 1656.276489,1589.207642 
	C1655.648438,1600.940186 1656.404541,1612.726196 1652.216064,1624.176636 
	C1648.318848,1634.831299 1645.542236,1645.895874 1641.707764,1657.276367 
	C1641.143311,1657.772583 1640.948975,1657.771362 1640.948975,1657.771362 
z"/>
<path fill="#E0DCE8" opacity="1.000000" stroke="none" 
	d="
M1444.001709,484.035889 
	C1443.652954,484.092529 1443.304077,484.149170 1441.520996,484.169922 
	C1438.423096,484.090393 1436.759277,484.008453 1435.095581,484.008514 
	C1147.076050,484.019165 859.056580,484.034302 571.037109,484.070618 
	C568.050049,484.070984 565.063049,484.352692 562.075989,484.503113 
	C561.177246,484.401581 560.278442,484.300079 558.599792,483.585175 
	C557.876038,482.595642 557.932190,482.219543 557.988403,481.843414 
	C561.312988,481.763306 564.637512,481.613068 567.962097,481.612946 
	C859.362366,481.601318 1150.762573,481.601318 1443.165405,482.271118 
	C1444.112549,483.306519 1444.057129,483.671204 1444.001709,484.035889 
z"/>
<path fill="#EAE6F3" opacity="1.000000" stroke="none" 
	d="
M344.132233,1587.965454 
	C343.968109,1585.986938 343.660370,1584.008423 343.660278,1582.029907 
	C343.649780,1401.974121 343.662842,1221.918457 344.337280,1040.920166 
	C345.000214,1039.977783 345.889496,1040.094971 346.016541,1040.579590 
	C346.237976,1041.384888 346.332367,1041.705444 346.259094,1042.948486 
	C346.052338,1209.275391 346.000214,1374.679688 345.995911,1540.084106 
	C345.995514,1555.380127 346.299286,1570.676270 346.327698,1586.464600 
	C346.097595,1587.283203 346.001587,1587.609619 345.462646,1587.966553 
	C345.019684,1587.997192 344.132233,1587.965454 344.132233,1587.965454 
z"/>
<path fill="#BFBFBF" opacity="1.000000" stroke="none" 
	d="
M1656.909790,1588.525879 
	C1656.185913,1585.881592 1656.016602,1582.555542 1656.016235,1579.229492 
	C1656.001587,1425.794189 1656.001099,1272.358765 1656.005859,1118.923462 
	C1656.005981,1116.261597 1656.090820,1113.599609 1656.203003,1109.918213 
	C1656.846558,1111.705933 1657.926758,1114.512939 1657.928223,1117.320557 
	C1658.007812,1272.511475 1657.998657,1427.702271 1657.977051,1582.893188 
	C1657.976807,1584.543457 1657.693970,1586.193726 1656.909790,1588.525879 
z"/>
<path fill="#B9B4C6" opacity="1.000000" stroke="none" 
	d="
M1615.729858,578.102600 
	C1597.943115,554.680054 1577.412598,534.226501 1552.401855,518.406555 
	C1534.321777,506.970490 1514.971924,498.562744 1494.534546,492.504486 
	C1488.944946,490.847595 1482.988647,490.505615 1478.142212,486.421814 
	C1476.733765,485.235077 1473.663574,486.020355 1470.646118,485.491272 
	C1469.937012,485.080872 1469.963867,484.422241 1469.963867,484.422241 
	C1472.773804,485.330536 1475.527588,486.755341 1478.402344,487.068665 
	C1514.114014,490.961090 1544.202271,507.323425 1572.214478,528.643127 
	C1590.053345,542.220032 1605.411255,558.068359 1617.811523,577.115173 
	C1616.781006,577.954468 1616.255371,578.028564 1615.729858,578.102600 
z"/>
<path fill="#B9B4C6" opacity="1.000000" stroke="none" 
	d="
M344.043884,1588.873047 
	C344.132233,1587.965454 345.019684,1587.997192 345.722137,1588.719482 
	C347.580353,1595.326050 348.736115,1601.210083 349.891907,1607.094238 
	C349.740326,1607.720093 349.588715,1608.345825 349.657593,1610.225342 
	C350.540741,1614.007690 351.203369,1616.536255 351.866028,1619.064819 
	C353.220001,1636.456787 359.861115,1652.250244 366.937073,1667.848022 
	C370.196625,1675.033325 374.286194,1681.842041 377.913910,1689.551270 
	C376.616882,1689.615845 374.888580,1689.262695 374.270325,1688.239014 
	C361.972473,1667.878418 353.372559,1645.977539 348.080048,1622.839233 
	C345.601929,1612.005005 343.106232,1601.074707 344.043884,1588.873047 
z"/>
<path fill="#ABA8B8" opacity="1.000000" stroke="none" 
	d="
M345.889526,1040.094971 
	C345.889496,1040.094971 345.000214,1039.977783 344.552704,1040.007080 
	C344.051300,981.967712 343.997406,923.899231 344.465546,864.911865 
	C344.987579,863.992981 345.856445,863.884277 345.979462,864.823730 
	C346.129333,893.658936 346.205597,921.554810 346.169708,949.450562 
	C346.130829,979.665405 345.987366,1009.880188 345.889526,1040.094971 
z"/>
<path fill="#ABA8B8" opacity="1.000000" stroke="none" 
	d="
M534.120056,486.214935 
	C529.417480,485.410675 524.614075,484.079041 521.219543,489.170044 
	C520.939880,489.589539 519.998230,489.610321 519.348450,489.734009 
	C499.591156,493.494598 481.210236,501.054413 463.317902,509.978058 
	C462.750061,510.261261 462.020355,510.219940 460.616913,510.132202 
	C469.090271,501.365875 481.277710,498.849548 492.329193,494.005737 
	C503.294525,489.199615 514.980042,487.548615 526.681763,485.887787 
	C528.598816,485.615692 530.450684,484.885132 533.166992,484.733521 
	C534.040894,485.472015 534.080444,485.843475 534.120056,486.214935 
z"/>
<path fill="#B9B4C6" opacity="1.000000" stroke="none" 
	d="
M1652.126709,680.889893 
	C1652.845947,662.015869 1646.773071,644.566833 1640.855591,627.081665 
	C1639.697144,623.658508 1638.644531,620.199646 1637.772217,615.931030 
	C1644.695679,620.918152 1645.095947,629.678650 1647.669312,637.208862 
	C1651.212646,647.576965 1653.475098,658.460571 1655.369995,669.283752 
	C1656.437866,675.383118 1655.665405,681.804504 1655.338867,688.887146 
	C1654.955811,689.693420 1654.281006,689.533997 1654.319824,688.775391 
	C1653.614624,685.641174 1652.870728,683.265564 1652.126709,680.889893 
z"/>
<path fill="#ABA8B8" opacity="1.000000" stroke="none" 
	d="
M449.484619,1762.352295 
	C454.061615,1764.062988 459.158142,1766.080566 464.220337,1768.181152 
	C475.149933,1772.716309 486.072144,1777.269775 496.968994,1781.882812 
	C498.407410,1782.491821 499.679962,1783.492432 501.411621,1784.835205 
	C482.648102,1782.096436 465.816833,1773.543091 449.484619,1762.352295 
z"/>
<path fill="#B9B4C6" opacity="1.000000" stroke="none" 
	d="
M356.158966,635.993164 
	C353.601501,648.200500 351.044006,660.407837 348.403931,674.269714 
	C347.445679,682.673279 346.570007,689.422363 345.344177,696.167480 
	C344.993988,696.163574 344.299164,696.075378 344.299164,696.075378 
	C343.107422,675.823181 347.034027,656.424988 354.679871,636.793152 
	C355.294006,636.041321 356.158966,635.993164 356.158966,635.993164 
z"/>
<path fill="#ABA8B8" opacity="1.000000" stroke="none" 
	d="
M344.111298,850.041931 
	C344.089264,826.619873 344.067261,803.197876 344.521790,778.802429 
	C344.998291,777.829041 345.720947,777.802734 345.919861,778.357300 
	C346.216400,779.291870 346.314056,779.671997 346.257263,780.951660 
	C346.199615,788.547791 346.296417,795.244263 346.303894,802.850464 
	C346.276184,809.855469 346.337830,815.950745 346.245300,822.885742 
	C346.194489,827.131226 346.297852,830.537109 346.312195,834.835449 
	C346.104645,840.521667 345.986053,845.315369 345.429871,850.054993 
	C344.992249,850.000854 344.111298,850.041931 344.111298,850.041931 
z"/>
<path fill="#ABA8B8" opacity="1.000000" stroke="none" 
	d="
M1498.916870,1785.417725 
	C1499.034180,1784.457764 1499.708618,1783.011963 1500.785156,1782.588867 
	C1512.039429,1778.165405 1523.357910,1773.905762 1535.400146,1769.855591 
	C1527.236938,1777.680908 1516.051514,1780.262695 1505.442505,1784.085205 
	C1503.596069,1784.750366 1501.591919,1784.977417 1498.916870,1785.417725 
z"/>
<path fill="#BFBFBF" opacity="1.000000" stroke="none" 
	d="
M1616.008667,578.740112 
	C1616.255371,578.028564 1616.781006,577.954468 1618.093750,577.762268 
	C1624.710205,587.898499 1630.539429,598.152771 1635.773926,609.182373 
	C1634.808472,609.967957 1634.437866,609.978271 1634.067261,609.988647 
	C1628.140625,599.784973 1622.213989,589.581238 1616.008667,578.740112 
z"/>
<path fill="#ABA8B8" opacity="1.000000" stroke="none" 
	d="
M1640.545410,1658.414551 
	C1640.948975,1657.771362 1641.143311,1657.772583 1641.218018,1657.834717 
	C1637.086304,1669.002686 1632.718750,1680.026733 1624.650635,1689.800781 
	C1624.194824,1688.520386 1623.901489,1686.698364 1624.569336,1685.354004 
	C1628.408936,1677.625000 1632.401855,1669.968506 1636.534912,1662.392334 
	C1637.277954,1661.030273 1638.916626,1660.156860 1640.545410,1658.414551 
z"/>
<path fill="#ABA8B8" opacity="1.000000" stroke="none" 
	d="
M417.148010,539.772095 
	C417.731903,540.729736 417.973663,541.990112 417.463257,542.505310 
	C410.759094,549.272339 403.948853,555.934143 396.518127,562.246033 
	C402.732788,554.489258 409.594543,547.108826 417.148010,539.772095 
z"/>
<path fill="#ABA8B8" opacity="1.000000" stroke="none" 
	d="
M367.250488,606.044983 
	C364.358276,615.106934 360.793365,624.367798 356.542419,633.819214 
	C356.550598,623.642517 362.164978,615.175171 367.250488,606.044983 
z"/>
<path fill="#B8B1D0" opacity="1.000000" stroke="none" 
	d="
M535.019287,486.265411 
	C534.080444,485.843475 534.040894,485.472015 534.008606,484.540161 
	C541.568481,483.122894 549.121094,482.266022 557.331055,481.626282 
	C557.932190,482.219543 557.876038,482.595642 557.921875,483.533020 
	C550.655396,484.834808 543.286987,485.575348 535.019287,486.265411 
z"/>
<path fill="#B8B1D0" opacity="1.000000" stroke="none" 
	d="
M1469.265137,484.002533 
	C1469.963867,484.422241 1469.937012,485.080872 1469.889771,485.411072 
	C1461.766602,485.291626 1453.690674,484.842010 1444.808228,484.214142 
	C1444.057129,483.671204 1444.112549,483.306519 1444.086792,482.394531 
	C1452.192505,482.425781 1460.379517,483.004303 1469.265137,484.002533 
z"/>
<path fill="#B9B4C6" opacity="1.000000" stroke="none" 
	d="
M447.235077,517.591187 
	C440.362335,523.789612 432.764496,529.801941 424.515656,535.425171 
	C423.855774,534.575256 423.846954,534.114319 423.838165,533.653442 
	C431.395447,528.237305 438.952698,522.821228 447.235077,517.591187 
z"/>
<path fill="#B9B4C6" opacity="1.000000" stroke="none" 
	d="
M377.310699,1690.783081 
	C383.122375,1697.008911 388.546143,1703.912598 393.927094,1711.522583 
	C390.150085,1708.381226 386.202667,1704.713257 382.756378,1700.623047 
	C380.444214,1697.878662 378.842438,1694.535889 377.310699,1690.783081 
z"/>
<path fill="#ABA8B8" opacity="1.000000" stroke="none" 
	d="
M395.234772,562.103210 
	C395.868225,563.082153 396.366364,564.659302 395.788635,565.429199 
	C391.062103,571.728088 386.135040,577.876526 380.572510,584.027344 
	C384.784363,576.765198 389.692596,569.546265 395.234772,562.103210 
z"/>
<path fill="#EAE6F3" opacity="1.000000" stroke="none" 
	d="
M344.033569,696.974854 
	C344.299164,696.075378 344.993988,696.163574 345.516296,696.626587 
	C346.038574,697.089600 346.380341,698.009888 346.228210,698.935730 
	C346.165192,712.596558 346.254272,725.331543 346.174561,738.495605 
	C346.005768,738.924622 345.709137,739.797791 345.350830,739.808350 
	C344.992523,739.818970 344.280151,739.899353 344.280151,739.899353 
	C344.109436,725.890991 343.938721,711.882629 344.033569,696.974854 
z"/>
<path fill="#ABA8B8" opacity="1.000000" stroke="none" 
	d="
M1610.744629,1709.911377 
	C1610.867310,1707.793579 1611.168213,1705.144897 1612.495972,1703.195435 
	C1615.646362,1698.569946 1619.283447,1694.275879 1623.424438,1689.937988 
	C1619.880005,1696.584717 1615.634888,1703.141479 1610.744629,1709.911377 
z"/>
<path fill="#B9B4C6" opacity="1.000000" stroke="none" 
	d="
M1472.873047,1791.684937 
	C1472.035034,1791.507324 1472.099731,1791.057495 1472.109863,1790.831299 
	C1479.232788,1789.162231 1486.345459,1787.719360 1493.994019,1786.455566 
	C1487.590210,1788.377197 1480.650635,1790.119873 1472.873047,1791.684937 
z"/>
<path fill="#ABA8B8" opacity="1.000000" stroke="none" 
	d="
M1548.722168,1763.978882 
	C1550.725464,1757.396484 1557.745117,1755.958618 1563.473877,1752.080078 
	C1561.324951,1758.598877 1554.473267,1760.091187 1548.722168,1763.978882 
z"/>
<path fill="#B9B4C6" opacity="1.000000" stroke="none" 
	d="
M1588.785767,1733.983154 
	C1589.133545,1732.051147 1589.800659,1729.690918 1591.231567,1727.963135 
	C1593.528320,1725.189697 1596.330444,1722.834839 1599.604614,1720.189331 
	C1599.449219,1726.848022 1593.431152,1729.541992 1588.785767,1733.983154 
z"/>
<path fill="#B9B4C6" opacity="1.000000" stroke="none" 
	d="
M375.303589,590.183411 
	C373.678162,595.125183 371.436768,600.387695 368.512665,605.828308 
	C370.115814,600.839050 372.401703,595.671570 375.303589,590.183411 
z"/>
<path fill="#EAE6F3" opacity="1.000000" stroke="none" 
	d="
M345.720947,777.802734 
	C345.720947,777.802734 344.998291,777.829041 344.638550,777.865356 
	C344.112152,769.893188 343.945465,761.884644 344.387451,753.026001 
	C344.996094,752.175903 345.717987,752.201538 345.866699,752.657043 
	C346.015442,753.112549 346.353729,754.010498 346.202942,754.915527 
	C346.155609,762.537659 346.259033,769.254761 346.192139,776.426147 
	C346.021820,776.880371 345.720947,777.802734 345.720947,777.802734 
z"/>
<path fill="#ABA8B8" opacity="1.000000" stroke="none" 
	d="
M1568.733032,1750.092041 
	C1570.958130,1747.347290 1573.880493,1744.549316 1577.496094,1741.968018 
	C1575.269653,1744.802979 1572.349976,1747.421021 1568.733032,1750.092041 
z"/>
<path fill="#ABA8B8" opacity="1.000000" stroke="none" 
	d="
M422.071411,1742.711914 
	C427.075409,1741.593262 429.485046,1745.489014 432.107971,1749.444336 
	C428.699860,1747.878052 425.487549,1745.611938 422.071411,1742.711914 
z"/>
<path fill="#ABA8B8" opacity="1.000000" stroke="none" 
	d="
M1536.773438,1770.159058 
	C1539.597656,1767.969116 1543.136108,1765.769531 1547.397095,1763.812744 
	C1544.575562,1766.086914 1541.031494,1768.118286 1536.773438,1770.159058 
z"/>
<path fill="#ABA8B8" opacity="1.000000" stroke="none" 
	d="
M432.098999,1750.758301 
	C435.100647,1751.691650 438.333008,1753.279541 441.747223,1755.549194 
	C438.729279,1754.624878 435.529510,1753.018799 432.098999,1750.758301 
z"/>
<path fill="#ABA8B8" opacity="1.000000" stroke="none" 
	d="
M459.288147,509.895294 
	C457.080505,511.975922 454.177399,514.099060 450.563049,516.049316 
	C452.765411,513.896912 455.679047,511.917358 459.288147,509.895294 
z"/>
<path fill="#574B8C" opacity="1.000000" stroke="none" 
	d="
M1654.281006,689.533997 
	C1654.281006,689.533997 1654.955811,689.693420 1655.286377,689.799072 
	C1655.772095,694.660156 1655.927124,699.415527 1655.953247,705.049194 
	C1655.824341,705.927429 1654.958252,706.007385 1654.473633,705.213562 
	C1654.086304,699.457825 1654.183594,694.495911 1654.281006,689.533997 
z"/>
<path fill="#B8B1D0" opacity="1.000000" stroke="none" 
	d="
M393.491119,1712.770752 
	C395.939453,1714.584106 398.120453,1717.107544 400.148621,1720.382812 
	C397.738434,1718.583374 395.481140,1716.032227 393.491119,1712.770752 
z"/>
<path fill="#EAE6F3" opacity="1.000000" stroke="none" 
	d="
M343.897797,850.891785 
	C344.111298,850.041931 344.992249,850.000854 345.557281,850.533875 
	C346.122314,851.066895 346.402527,852.018188 346.236389,852.836304 
	C346.176758,856.425049 346.283264,859.195740 346.249695,862.444031 
	C346.109619,862.921631 345.856445,863.884277 345.856445,863.884277 
	C345.856445,863.884277 344.987579,863.992981 344.550171,863.975220 
	C343.969910,859.885498 343.827118,855.813538 343.897797,850.891785 
z"/>
<path fill="#ABA8B8" opacity="1.000000" stroke="none" 
	d="
M441.556427,1756.779785 
	C443.761810,1757.435791 445.749115,1758.732666 447.920105,1760.655029 
	C445.848633,1759.993896 443.593506,1758.707275 441.556427,1756.779785 
z"/>
<path fill="#ABA8B8" opacity="1.000000" stroke="none" 
	d="
M413.504333,1734.886841 
	C415.886108,1735.729736 418.035492,1737.234375 420.060303,1739.442139 
	C417.714447,1738.613037 415.493195,1737.080811 413.504333,1734.886841 
z"/>
<path fill="#ABA8B8" opacity="1.000000" stroke="none" 
	d="
M345.717987,752.201538 
	C345.717987,752.201538 344.996094,752.175903 344.636963,752.137817 
	C344.200806,748.610046 344.123810,745.120361 344.163483,740.765015 
	C344.280151,739.899353 344.992523,739.818970 345.547394,740.359741 
	C346.198914,741.278198 346.295593,741.655884 346.242493,742.817688 
	C346.197205,745.718933 346.301727,747.836060 346.260010,750.523193 
	C345.981873,751.462708 345.849915,751.832153 345.717987,752.201538 
z"/>
<path fill="#ABA8B8" opacity="1.000000" stroke="none" 
	d="
M1606.814575,1714.247559 
	C1607.022461,1712.698853 1607.866943,1711.203369 1609.425293,1709.891724 
	C1609.243164,1711.483887 1608.347168,1712.892334 1606.814575,1714.247559 
z"/>
<path fill="#B9B4C6" opacity="1.000000" stroke="none" 
	d="
M1602.790283,1718.533325 
	C1603.024658,1716.802612 1603.937134,1715.347900 1605.527344,1714.014160 
	C1605.292725,1715.693237 1604.380493,1717.251343 1602.790283,1718.533325 
z"/>
<path fill="#B9B4C6" opacity="1.000000" stroke="none" 
	d="
M1634.153076,610.540771 
	C1634.437866,609.978271 1634.808472,609.967957 1635.734619,609.931885 
	C1636.717529,610.832031 1637.145020,611.757935 1637.615723,613.192749 
	C1636.518677,612.832092 1635.378784,611.962524 1634.153076,610.540771 
z"/>
<path fill="#B9B4C6" opacity="1.000000" stroke="none" 
	d="
M1582.734863,1738.468506 
	C1583.677002,1736.613281 1585.267578,1734.980347 1587.493164,1733.733276 
	C1586.546509,1735.642944 1584.964966,1737.166870 1582.734863,1738.468506 
z"/>
<path fill="#B9B4C6" opacity="1.000000" stroke="none" 
	d="
M1578.822632,1742.223389 
	C1579.040527,1740.807983 1579.945679,1739.414429 1581.541748,1738.072754 
	C1581.325073,1739.498169 1580.417603,1740.871826 1578.822632,1742.223389 
z"/>
<path fill="#ABA8B8" opacity="1.000000" stroke="none" 
	d="
M407.856567,1728.737549 
	C409.215302,1728.994507 410.587708,1729.974243 411.879669,1731.612061 
	C410.489563,1731.333618 409.179901,1730.396973 407.856567,1728.737549 
z"/>
<path fill="#ABA8B8" opacity="1.000000" stroke="none" 
	d="
M1564.679321,1752.392090 
	C1564.961914,1751.404785 1565.891357,1750.613281 1567.479248,1749.938721 
	C1567.200439,1750.899780 1566.263306,1751.743896 1564.679321,1752.392090 
z"/>
<path fill="#ABA8B8" opacity="1.000000" stroke="none" 
	d="
M356.269531,635.445435 
	C356.158966,635.993164 355.294006,636.041321 354.860870,636.038574 
	C354.593353,635.419922 354.758942,634.803894 355.423279,634.033081 
	C356.074707,634.218079 356.227417,634.557922 356.269531,635.445435 
z"/>
<path fill="#B9B4C6" opacity="1.000000" stroke="none" 
	d="
M449.252075,515.781738 
	C449.643372,516.529541 449.362244,517.236633 448.432251,517.924438 
	C448.048798,517.183838 448.314209,516.462463 449.252075,515.781738 
z"/>
<path fill="#ABA8B8" opacity="1.000000" stroke="none" 
	d="
M411.529846,1732.910034 
	C412.469269,1732.461914 413.195099,1732.724487 413.855835,1733.622070 
	C412.965881,1734.044922 412.141113,1733.832886 411.529846,1732.910034 
z"/>
<path fill="#ABA8B8" opacity="1.000000" stroke="none" 
	d="
M419.979553,1740.576660 
	C420.564453,1740.328979 421.280487,1740.616211 421.978088,1741.525269 
	C421.343323,1741.801880 420.727020,1741.456665 419.979553,1740.576660 
z"/>
<path fill="#B9B4C6" opacity="1.000000" stroke="none" 
	d="
M377.332947,587.808594 
	C377.670288,588.605469 377.409943,589.395264 376.499420,590.067261 
	C376.144592,589.233459 376.439941,588.517517 377.332947,587.808594 
z"/>
<path fill="#ABA8B8" opacity="1.000000" stroke="none" 
	d="
M405.501831,1726.520996 
	C406.003021,1726.271484 406.795074,1726.599976 407.797852,1727.540771 
	C407.269958,1727.801758 406.531342,1727.450317 405.501831,1726.520996 
z"/>
<path fill="#B9B4C6" opacity="1.000000" stroke="none" 
	d="
M1600.837891,1720.505127 
	C1600.423340,1719.585327 1600.748047,1718.911987 1601.657471,1718.165894 
	C1602.020508,1718.979370 1601.798950,1719.865356 1600.837891,1720.505127 
z"/>
<path fill="#ABA8B8" opacity="1.000000" stroke="none" 
	d="
M423.301392,533.803162 
	C423.846954,534.114319 423.855774,534.575256 423.886841,535.729370 
	C423.512115,536.511047 423.115204,536.599487 422.302795,536.241211 
	C422.179749,535.180664 422.472168,534.566772 423.301392,533.803162 
z"/>
<path fill="#ABA8B8" opacity="1.000000" stroke="none" 
	d="
M421.291626,535.865967 
	C421.640289,536.574951 421.401733,537.312805 420.498474,537.978333 
	C420.123993,537.235596 420.414215,536.565186 421.291626,535.865967 
z"/>
<path fill="#ABA8B8" opacity="1.000000" stroke="none" 
	d="
M419.302368,537.851990 
	C419.635468,538.550415 419.362915,539.267944 418.450989,539.926636 
	C418.106628,539.202209 418.401703,538.536682 419.302368,537.851990 
z"/>
<path fill="#ABA8B8" opacity="1.000000" stroke="none" 
	d="
M379.510681,584.085083 
	C380.033417,584.240784 380.096954,584.603210 379.617004,585.500366 
	C379.073486,586.035095 378.239502,586.023560 378.239502,586.023560 
	C378.510193,585.446350 378.780853,584.869080 379.510681,584.085083 
z"/>
<path fill="#B9B4C6" opacity="1.000000" stroke="none" 
	d="
M377.906708,586.448975 
	C378.239502,586.023560 379.073486,586.035095 379.489075,586.037231 
	C379.584259,586.684021 379.263885,587.328735 378.375092,587.951355 
	C377.729095,587.577637 377.651520,587.226074 377.906708,586.448975 
z"/>
<path fill="#FEFEFF" opacity="1.000000" stroke="none" 
	d="
M922.338135,1385.227539 
	C877.808228,1410.949707 833.794128,1435.941528 790.249390,1461.725830 
	C775.999817,1470.163452 766.344177,1467.557495 764.323975,1448.363525 
	C760.386108,1410.949585 755.395142,1373.647339 751.172729,1336.261230 
	C750.393860,1329.365356 747.750061,1325.246948 741.571228,1321.589478 
	C703.475281,1299.039429 669.004028,1272.007202 640.795288,1237.526001 
	C612.361023,1202.769165 593.113281,1163.643799 586.948120,1118.999023 
	C581.208618,1077.436768 587.862671,1037.321045 605.532898,999.220642 
	C628.267517,950.200317 663.700623,911.956665 707.257690,880.816101 
	C764.021851,840.233337 827.552612,815.780029 895.599060,802.071899 
	C952.563843,790.596130 1009.991089,788.475403 1067.636597,794.336731 
	C1146.904297,802.396606 1221.512573,825.233521 1289.293823,867.961304 
	C1336.244507,897.557922 1375.838379,934.716980 1402.199829,984.225830 
	C1439.914673,1055.057129 1440.432251,1126.245850 1401.962646,1197.099731 
	C1380.921631,1235.853638 1351.032837,1266.904297 1316.164307,1293.356079 
	C1263.836792,1333.052246 1204.575684,1357.837402 1141.224609,1373.397583 
	C1081.148804,1388.153198 1020.153076,1391.262939 958.640320,1386.389282 
	C950.009155,1385.705444 941.412598,1384.562378 932.776855,1383.969727 
	C929.564331,1383.749512 926.285278,1384.498657 922.338135,1385.227539 
z"/>
<path fill="#43338A" opacity="1.000000" stroke="none" 
	d="
M1654.319824,688.775391 
	C1654.183594,694.495911 1654.086304,699.457825 1654.058716,705.344116 
	C1654.099609,806.491455 1654.048340,906.714478 1654.046143,1006.937500 
	C1654.041748,1196.730225 1654.109131,1386.522827 1653.975098,1576.315430 
	C1653.966797,1588.235229 1652.479492,1600.153809 1651.532104,1612.933350 
	C1650.921143,1610.566162 1650.053589,1607.338989 1650.052979,1604.111450 
	C1649.997314,1310.968872 1649.979858,1017.826355 1650.102417,724.683838 
	C1650.108276,710.768005 1651.394897,696.852722 1652.105957,681.913574 
	C1652.870728,683.265564 1653.614624,685.641174 1654.319824,688.775391 
z"/>
<path fill="#44387D" opacity="1.000000" stroke="none" 
	d="
M562.758728,484.954285 
	C565.063049,484.352692 568.050049,484.070984 571.037109,484.070618 
	C859.056580,484.034302 1147.076050,484.019165 1435.095581,484.008514 
	C1436.759277,484.008453 1438.423096,484.090393 1441.008545,484.305786 
	C1438.716064,484.986298 1435.501831,485.939728 1432.287354,485.940491 
	C1145.314575,486.008636 858.341919,486.005219 571.369202,485.978760 
	C568.726624,485.978516 566.084045,485.604797 562.758728,484.954285 
z"/>
<path fill="#43338A" opacity="1.000000" stroke="none" 
	d="
M346.392273,742.033630 
	C346.295593,741.655884 346.198914,741.278198 345.905701,740.349121 
	C345.709137,739.797791 346.005768,738.924622 346.601929,738.479553 
	C347.198120,738.034485 348.052216,737.988464 348.052216,737.988464 
	C348.698456,741.134155 349.906982,744.279419 349.909668,747.425659 
	C350.007690,861.259888 349.999054,975.094177 349.958740,1088.928467 
	C349.957825,1091.546387 349.423889,1094.164062 348.572266,1096.463013 
	C348.003174,1081.282471 348.089752,1066.419678 347.926300,1051.559692 
	C347.891296,1048.376709 346.950378,1045.203735 346.426788,1042.026123 
	C346.332367,1041.705444 346.237976,1041.384888 346.016571,1040.579590 
	C345.987366,1009.880188 346.130829,979.665405 346.169708,949.450562 
	C346.205597,921.554810 346.129333,893.658936 345.979462,864.823730 
	C345.856445,863.884277 346.109619,862.921631 346.683594,861.928345 
	C346.972565,857.962830 346.687531,854.990479 346.402527,852.018188 
	C346.402527,852.018188 346.122314,851.066895 345.994873,850.588013 
	C345.986053,845.315369 346.104645,840.521667 346.749084,834.286011 
	C346.983154,829.244812 346.691345,825.645386 346.399475,822.046021 
	C346.337830,815.950745 346.276184,809.855469 346.769226,802.212952 
	C347.019867,793.794495 346.715790,786.923279 346.411713,780.052063 
	C346.314056,779.671997 346.216400,779.291870 345.919861,778.357300 
	C345.720947,777.802734 346.021820,776.880371 346.669800,775.786621 
	C346.996429,767.798706 346.675079,760.904602 346.353729,754.010498 
	C346.353729,754.010498 346.015442,753.112549 345.866699,752.657043 
	C345.849915,751.832153 345.981873,751.462708 346.673035,750.052368 
	C346.952301,746.685547 346.672302,744.359619 346.392273,742.033630 
z"/>
<path fill="#574B8C" opacity="1.000000" stroke="none" 
	d="
M346.259094,1042.948486 
	C346.950378,1045.203735 347.891296,1048.376709 347.926300,1051.559692 
	C348.089752,1066.419678 348.003174,1081.282471 348.015808,1097.084229 
	C348.023254,1103.412231 348.020935,1108.799927 348.013184,1116.025146 
	C348.002930,1270.024536 348.009369,1422.186401 347.929077,1574.348389 
	C347.927032,1578.223267 346.972290,1582.097656 346.461792,1585.972290 
	C346.299286,1570.676270 345.995514,1555.380127 345.995911,1540.084106 
	C346.000214,1374.679688 346.052338,1209.275391 346.259094,1042.948486 
z"/>
<path fill="#43338A" opacity="1.000000" stroke="none" 
	d="
M346.327698,1586.464600 
	C346.972290,1582.097656 347.927032,1578.223267 347.929077,1574.348389 
	C348.009369,1422.186401 348.002930,1270.024536 348.017395,1116.923706 
	C348.683990,1119.128174 349.914307,1122.271118 349.915649,1125.414673 
	C349.985474,1285.292725 349.950562,1445.170654 349.909363,1606.071533 
	C348.736115,1601.210083 347.580353,1595.326050 346.165100,1588.688965 
	C346.001587,1587.609619 346.097595,1587.283203 346.327698,1586.464600 
z"/>
<path fill="#43338A" opacity="1.000000" stroke="none" 
	d="
M346.380341,698.009888 
	C346.380341,698.009888 346.038574,697.089600 345.866455,696.630493 
	C346.570007,689.422363 347.445679,682.673279 348.452698,675.059448 
	C348.998535,675.072693 349.781342,675.954285 349.772827,676.828125 
	C349.617340,692.814819 349.366943,708.800659 348.571228,724.480225 
	C347.463989,715.452454 346.922150,706.731201 346.380341,698.009888 
z"/>
<path fill="#574B8C" opacity="1.000000" stroke="none" 
	d="
M346.228210,698.935730 
	C346.922150,706.731201 347.463989,715.452454 348.015381,725.102783 
	C348.023712,729.447937 348.022461,732.864197 348.036682,737.134399 
	C348.052216,737.988464 347.198120,738.034485 346.770752,738.050537 
	C346.254272,725.331543 346.165192,712.596558 346.228210,698.935730 
z"/>
<path fill="#43338A" opacity="1.000000" stroke="none" 
	d="
M351.885315,1618.226318 
	C351.203369,1616.536255 350.540741,1614.007690 349.879578,1610.679688 
	C350.555603,1612.382812 351.230133,1614.885376 351.885315,1618.226318 
z"/>
<path fill="#574B8C" opacity="1.000000" stroke="none" 
	d="
M346.257263,780.951660 
	C346.715790,786.923279 347.019867,793.794495 346.858582,801.303223 
	C346.296417,795.244263 346.199615,788.547791 346.257263,780.951660 
z"/>
<path fill="#574B8C" opacity="1.000000" stroke="none" 
	d="
M346.245331,822.885742 
	C346.691345,825.645386 346.983154,829.244812 346.838074,833.393555 
	C346.297852,830.537109 346.194489,827.131226 346.245331,822.885742 
z"/>
<path fill="#574B8C" opacity="1.000000" stroke="none" 
	d="
M346.202942,754.915527 
	C346.675079,760.904602 346.996429,767.798706 346.840149,775.332397 
	C346.259033,769.254761 346.155609,762.537659 346.202942,754.915527 
z"/>
<path fill="#574B8C" opacity="1.000000" stroke="none" 
	d="
M346.236389,852.836304 
	C346.687531,854.990479 346.972565,857.962830 346.823669,861.450806 
	C346.283264,859.195740 346.176758,856.425049 346.236389,852.836304 
z"/>
<path fill="#574B8C" opacity="1.000000" stroke="none" 
	d="
M346.242493,742.817688 
	C346.672302,744.359619 346.952301,746.685547 346.819275,749.482422 
	C346.301727,747.836060 346.197205,745.718933 346.242493,742.817688 
z"/>
</svg>